<?xml version="1.0" encoding="UTF-8" standalone="no"?>
<!-- Created with Inkscape (http://www.inkscape.org/) -->

<svg
   width="35mm"
   height="35mm"
   viewBox="0 0 35 35"
   version="1.1"
   id="svg5"
   inkscape:version="1.1.2 (0a00cf5339, 2022-02-04)"
   sodipodi:docname="co2.svg"
   xmlns:inkscape="http://www.inkscape.org/namespaces/inkscape"
   xmlns:sodipodi="http://sodipodi.sourceforge.net/DTD/sodipodi-0.dtd"
   xmlns="http://www.w3.org/2000/svg"
   xmlns:svg="http://www.w3.org/2000/svg">
  <sodipodi:namedview
     id="namedview7"
     pagecolor="#ffffff"
     bordercolor="#666666"
     borderopacity="1.0"
     inkscape:pageshadow="2"
     inkscape:pageopacity="0.0"
     inkscape:pagecheckerboard="0"
     inkscape:document-units="mm"
     showgrid="false"
     inkscape:zoom="0.77504209"
     inkscape:cx="397.39777"
     inkscape:cy="-213.53679"
     inkscape:window-width="1862"
     inkscape:window-height="1016"
     inkscape:window-x="58"
     inkscape:window-y="27"
     inkscape:window-maximized="1"
     inkscape:current-layer="layer1" />
  <defs
     id="defs2" />
  <g
     inkscape:label="Layer 1"
     inkscape:groupmode="layer"
     id="layer1">
    <rect
       width="51.807499"
       height="51.807499"
       stroke="none"
       fill="#000000"
       opacity="0"
       id="rect824"
       x="-1.3079666"
       y="-2.5692489"
       style="stroke-width:2.15865" />
    <g
       transform="matrix(1.2665298,0,0,1.2665298,18.295331,18.601605)"
       id="g828">
      <path
         style="opacity:1;fill:#000000;fill-rule:nonzero;stroke:none;stroke-width:1;stroke-linecap:butt;stroke-linejoin:miter;stroke-miterlimit:4;stroke-dasharray:none;stroke-dashoffset:0"
         transform="translate(-12,-12)"
         d="M 12,4 C 9.539,4 7.3640469,5.1943906 5.9980469,7.0253906 2.6430469,7.2823906 0,10.079 0,13.5 0,17.09 2.91,20 6.5,20 h 12 C 21.538,20 24,17.538 24,14.5 24,11.656 21.841219,9.3172969 19.074219,9.0292969 18.052219,6.1022969 15.276,4 12,4 Z m 0,2 c 2.332,0 4.415547,1.4834531 5.185547,3.6894531 l 0.417969,1.1992189 1.263672,0.130859 C 20.654188,11.205531 22,12.701 22,14.5 22,16.43 20.43,18 18.5,18 H 6.5 C 4.019,18 2,15.981 2,13.5 2,11.165 3.8243438,9.1975312 6.1523438,9.0195312 l 0.90625,-0.070312 0.5449218,-0.7285157 C 8.6555156,6.8097031 10.258,6 12,6 Z M 6.8691406,9.9941406 c -0.574,0 -1.079625,0.1371564 -1.515625,0.4101564 -0.437,0.273 -0.7719062,0.660156 -1.0039062,1.160156 C 4.1166094,12.064453 4,12.649406 4,13.316406 v 0.337891 c 0,1.064 0.2564844,1.886703 0.7714844,2.470703 0.515,0.583 1.2202343,0.875 2.1152344,0.875 0.5429999,0 1.0272187,-0.09978 1.4492187,-0.300781 0.423,-0.199 0.750375,-0.48075 0.984375,-0.84375 0.234,-0.363 0.3608125,-0.78186 0.3828125,-1.25586 H 8.0703125 c -0.012,0.387 -0.1174063,0.667703 -0.3164063,0.845703 -0.1999999,0.178001 -0.4891874,0.267579 -0.8671874,0.267579 -0.446,0 -0.7603594,-0.15675 -0.9433594,-0.46875 -0.182,-0.312 -0.2714844,-0.829641 -0.2714844,-1.556641 v -0.482422 c 0.009,-0.67 0.1088281,-1.158844 0.2988281,-1.464844 0.19,-0.306 0.4894375,-0.458984 0.8984375,-0.458984 0.402,0 0.7024375,0.09048 0.8984375,0.271484 0.197,0.181 0.3005,0.479532 0.3125,0.894532 H 9.71875 c -0.068,-0.764 -0.3534687,-1.363828 -0.8554688,-1.798828 -0.503,-0.435 -1.1671406,-0.6542974 -1.9941406,-0.6542974 z M 13.269531,10 c -0.584,0 -1.103547,0.138016 -1.560547,0.416016 -0.456,0.277 -0.807734,0.67164 -1.052734,1.18164 -0.245,0.511 -0.367188,1.098625 -0.367188,1.765625 v 0.384766 c 0.011,0.643 0.144485,1.211031 0.396485,1.707031 0.25,0.496 0.599828,0.877531 1.048828,1.144531 0.449,0.267 0.963922,0.400391 1.544922,0.400391 0.58,0 1.097781,-0.137063 1.550781,-0.414062 0.454,-0.276001 0.803781,-0.669641 1.050781,-1.181641 0.246,-0.511 0.369141,-1.099672 0.369141,-1.763672 v -0.314453 c -0.003,-0.655 -0.129859,-1.237141 -0.380859,-1.744141 -0.252,-0.507 -0.602688,-0.896875 -1.054688,-1.171875 C 14.361453,10.136156 13.846531,10 13.269531,10 Z m 0,1.287109 c 0.42,0 0.744703,0.174391 0.970703,0.525391 0.226,0.351 0.339844,0.865969 0.339844,1.542969 v 0.314453 c -0.003,0.661 -0.116797,1.167531 -0.341797,1.519531 -0.225,0.353 -0.544984,0.529297 -0.958984,0.529297 -0.437,0 -0.764328,-0.178109 -0.986328,-0.537109 -0.222,-0.359 -0.332031,-0.874016 -0.332031,-1.541016 l 0.0039,-0.5 c 0.047,-1.236 0.480687,-1.853516 1.304687,-1.853516 z M 18.359375,13 c -0.401135,9.01e-4 -0.727326,0.135248 -0.980469,0.402344 C 17.126906,13.670344 17,14.000578 17,14.392578 h 1 c 0,-0.143 0.03733,-0.265234 0.111328,-0.365234 0.075,-0.099 0.174734,-0.148438 0.302734,-0.148438 0.273,0 0.410157,0.156203 0.410157,0.408203 0,0.285 -0.316563,0.564938 -0.476563,0.710938 L 17,16.261719 V 17 h 3 v -1 h -1.455078 l 0.251953,-0.21875 c 0.468,-0.352 0.76925,-0.631844 0.90625,-0.839844 0.137,-0.207 0.205078,-0.434593 0.205078,-0.683594 0,-0.404999 -0.13239,-0.717593 -0.400391,-0.933593 C 19.240593,13.107851 18.858165,13.000628 18.363281,13 h -0.002 z"
         stroke-linecap="round"
         id="path826" />
    </g>
  </g>
</svg>
